<svg width="511" height="120" viewBox="0 0 511 120" fill="none" xmlns="http://www.w3.org/2000/svg">
<path d="M470.336 115.551C468.608 115.551 466.688 115.199 464.576 114.495C462.528 113.855 460.704 113.087 459.104 112.191L463.808 101.919C464.896 102.495 465.888 102.943 466.784 103.263C467.744 103.647 468.576 103.839 469.28 103.839C470.624 103.839 471.808 103.455 472.832 102.687C473.856 101.983 474.688 100.927 475.328 99.5192L480.992 86.1752L496.256 47.1992H510.176L488.384 99.3272C487.04 102.527 485.632 105.343 484.16 107.775C482.688 110.271 480.864 112.191 478.688 113.535C476.576 114.879 473.792 115.551 470.336 115.551ZM477.632 95.1992L455.648 47.1992H469.568L485.6 86.1752L489.728 95.1992H477.632Z" fill="#02001A"/>
<path d="M436.162 69.9518C436.162 64.7678 437.154 60.4798 439.138 57.0878C441.186 53.6958 443.778 51.1678 446.914 49.5038C450.114 47.8398 453.442 47.0078 456.898 47.0078V59.2958C453.954 59.2958 451.17 59.6478 448.546 60.3518C445.986 61.0558 443.906 62.2078 442.306 63.8078C440.706 65.4078 439.906 67.4558 439.906 69.9518H436.162ZM427.234 95.1998V47.1998H439.906V95.1998H427.234Z" fill="#02001A"/>
<path d="M402.67 69.9518C402.67 64.7678 403.662 60.4798 405.646 57.0878C407.694 53.6958 410.286 51.1678 413.422 49.5038C416.622 47.8398 419.95 47.0078 423.406 47.0078V59.2958C420.462 59.2958 417.678 59.6478 415.054 60.3518C412.494 61.0558 410.414 62.2078 408.814 63.8078C407.214 65.4078 406.414 67.4558 406.414 69.9518H402.67ZM393.742 95.1998V47.1998H406.414V95.1998H393.742Z" fill="#02001A"/>
<path d="M365.163 96.3509C360.427 96.3509 356.235 95.2949 352.587 93.1829C348.939 91.0069 346.059 88.0309 343.947 84.2549C341.899 80.4789 340.875 76.1269 340.875 71.1989C340.875 66.2709 341.931 61.9189 344.043 58.1429C346.219 54.3669 349.163 51.4229 352.875 49.3109C356.651 47.1349 360.971 46.0469 365.835 46.0469C370.059 46.0469 373.931 47.1669 377.451 49.4069C381.035 51.5829 383.883 54.8149 385.995 59.1029C388.171 63.3269 389.259 68.4789 389.259 74.5589H352.875L354.027 73.4069C354.027 75.7749 354.603 77.8549 355.755 79.6469C356.971 81.3749 358.507 82.7189 360.363 83.6789C362.283 84.5749 364.331 85.0229 366.507 85.0229C369.131 85.0229 371.275 84.4789 372.939 83.3909C374.603 82.2389 375.883 80.7669 376.779 78.9749L388.107 83.3909C386.763 86.0789 385.003 88.4149 382.827 90.3989C380.715 92.3189 378.187 93.7909 375.243 94.8149C372.299 95.8389 368.939 96.3509 365.163 96.3509ZM354.699 66.3029L353.547 65.1509H376.683L375.627 66.3029C375.627 63.9989 375.083 62.1749 373.995 60.8309C372.907 59.4229 371.563 58.3989 369.963 57.7589C368.427 57.1189 366.923 56.7989 365.451 56.7989C363.979 56.7989 362.411 57.1189 360.747 57.7589C359.083 58.3989 357.643 59.4229 356.427 60.8309C355.275 62.1749 354.699 63.9989 354.699 66.3029Z" fill="#02001A"/>
<path d="M289.391 95.2V28H312.143C316.751 28 320.783 28.704 324.239 30.112C327.695 31.52 330.383 33.664 332.303 36.544C334.223 39.36 335.183 42.88 335.183 47.104C335.183 49.728 334.511 52.16 333.167 54.4C331.887 56.576 330.063 58.464 327.695 60.064C330.831 61.664 333.231 63.808 334.895 66.496C336.623 69.12 337.487 72.288 337.487 76C337.487 80.096 336.559 83.584 334.703 86.464C332.847 89.344 330.255 91.52 326.927 92.992C323.599 94.464 319.695 95.2 315.215 95.2H289.391ZM302.255 83.584H313.967C317.103 83.584 319.567 82.816 321.359 81.28C323.151 79.68 324.047 77.568 324.047 74.944C324.047 72.192 323.055 70.048 321.071 68.512C319.087 66.912 316.367 66.112 312.911 66.112H302.255V83.584ZM302.255 55.36H312.431C315.311 55.36 317.583 54.624 319.247 53.152C320.911 51.68 321.743 49.6 321.743 46.912C321.743 44.224 320.815 42.144 318.959 40.672C317.103 39.2 314.575 38.464 311.375 38.464H302.255V55.36Z" fill="#02001A"/>
<path d="M266.82 95.2V28H279.492V95.2H266.82Z" fill="#02001A"/>
<path d="M246.078 95.2V28H258.75V95.2H246.078Z" fill="#02001A"/>
<path d="M215.738 96.3509C210.874 96.3509 206.522 95.2949 202.682 93.1829C198.906 91.0069 195.93 88.0309 193.754 84.2549C191.642 80.4789 190.586 76.1269 190.586 71.1989C190.586 66.2709 191.642 61.9189 193.754 58.1429C195.866 54.3669 198.81 51.4229 202.586 49.3109C206.362 47.1349 210.682 46.0469 215.546 46.0469C220.474 46.0469 224.826 47.1349 228.602 49.3109C232.378 51.4229 235.322 54.3669 237.434 58.1429C239.546 61.9189 240.602 66.2709 240.602 71.1989C240.602 76.1269 239.546 80.4789 237.434 84.2549C235.322 88.0309 232.378 91.0069 228.602 93.1829C224.89 95.2949 220.602 96.3509 215.738 96.3509ZM215.738 84.6389C218.106 84.6389 220.186 84.0629 221.978 82.9109C223.77 81.7589 225.146 80.1909 226.106 78.2069C227.13 76.1589 227.642 73.8229 227.642 71.1989C227.642 68.5749 227.13 66.2709 226.106 64.2869C225.082 62.2389 223.642 60.6389 221.786 59.4869C219.994 58.3349 217.914 57.7589 215.546 57.7589C213.242 57.7589 211.162 58.3349 209.306 59.4869C207.514 60.6389 206.106 62.2389 205.082 64.2869C204.058 66.2709 203.546 68.5749 203.546 71.1989C203.546 73.8229 204.058 76.1589 205.082 78.2069C206.106 80.1909 207.546 81.7589 209.402 82.9109C211.258 84.0629 213.37 84.6389 215.738 84.6389Z" fill="#02001A"/>
<path d="M136 95.2V28H160.96C165.696 28 169.888 28.928 173.536 30.784C177.184 32.64 180.032 35.2 182.08 38.464C184.128 41.664 185.152 45.408 185.152 49.696C185.152 53.92 184.064 57.696 181.888 61.024C179.776 64.288 176.864 66.848 173.152 68.704C169.44 70.496 165.216 71.392 160.48 71.392H149.152V95.2H136ZM172.96 95.2L157.408 68.224L167.488 61.024L187.84 95.2H172.96ZM149.152 59.392H161.056C163.04 59.392 164.8 58.976 166.336 58.144C167.936 57.312 169.184 56.16 170.08 54.688C171.04 53.216 171.52 51.552 171.52 49.696C171.52 46.816 170.464 44.48 168.352 42.688C166.304 40.896 163.648 40 160.384 40H149.152V59.392Z" fill="#02001A"/>
<path d="M69.0411 114.073C62.5917 115.586 56.2067 115.644 49.8204 115.746C44.7941 115.827 39.9655 116.914 35.3268 118.845C29.9508 121.083 26.6481 119.824 24.5982 114.382C22.3084 108.304 18.8348 103.006 14.5942 98.1736C7.59926 90.2025 2.59214 81.2463 0.770558 70.6879C-3.0912 48.304 7.58977 22.0442 32.1949 13.6296C34.1127 12.9737 35.0108 13.1917 35.9989 15.0408C38.7776 20.2406 43.3583 23.0712 49.0939 24.0181C50.6298 24.2716 51.2151 24.8489 51.2675 26.4398C51.37 29.5534 53.0098 32.0901 54.9178 34.3966C57.3286 37.311 59.9624 40.0505 61.3646 44.0753C65.3827 40.8977 70.2068 40.2027 74.4078 38.0674C76.5331 36.9871 78.5306 35.6703 79.8492 33.5838C80.4199 32.6809 81.1109 32.4955 82.1153 32.8754C87.6782 34.98 93.1417 34.9593 98.4428 32.0002C99.7162 31.2894 100.196 32.4306 100.735 33.1186C105.164 38.7654 107.993 45.1679 109.611 52.135C115.42 77.1396 100.022 103.285 76.0202 111.924C73.791 112.727 71.4902 113.331 69.0411 114.073ZM93.3764 63.5885C93.3013 64.1022 93.1927 64.6136 93.156 65.13C92.0956 80.0383 85.0346 91.3722 72.6283 99.4867C70.6533 100.778 68.5325 101.847 66.0382 103.271C83.6684 99.8256 97.2768 85.7175 99.8796 68.5034C100.252 66.0435 100.92 63.5283 100.054 61.0121C99.5016 59.4055 98.3922 58.5732 96.6812 58.7166C95.0132 58.8563 93.9439 59.7804 93.5845 61.4283C93.459 62.0034 93.4738 62.609 93.3764 63.5885ZM30.5327 33.3156C31.0599 32.7954 31.669 32.3343 32.096 31.7419C32.8441 30.7041 33.4794 29.5609 32.7044 28.2585C31.9525 26.9948 30.7068 26.8206 29.3936 26.9835C27.957 27.1618 26.7477 27.8912 25.5763 28.6896C16.1968 35.0828 11.0763 47.7504 13.4527 59.3662C15.6942 48.2439 21.2884 39.7466 30.5327 33.3156ZM91.3764 48.9108C91.5125 49.4851 91.6236 50.0666 91.7889 50.6324C92.5342 53.1846 94.1248 54.3759 96.0182 53.8199C98.0726 53.2165 98.6638 51.3982 97.685 48.6813C97.5848 48.4033 97.4651 48.1323 97.3511 47.8594C96.7218 46.3532 95.5793 45.3231 93.9698 45.4899C92.3389 45.6589 91.393 46.8264 91.3764 48.9108Z" fill="#B7084B"/>
<path d="M73.4301 13.1781C75.3095 11.6026 77.4172 11.2504 79.5995 11.2023C81.677 11.1564 83.7604 11.2612 85.8328 11.1479C87.6143 11.0506 88.1697 11.8831 88.243 13.5147C88.404 17.0986 88.4699 17.0278 91.8559 18.1082C96.0554 19.4482 100.26 19.6003 104.544 18.192C104.271 22.6872 98.5078 28.585 93.8691 30.017C89.2499 31.443 85.5611 30.7014 78.2257 26.8104C77.7696 33.2942 72.8984 35.1687 67.8231 36.7301C66.1951 37.231 64.6806 38.7713 63.083 38.3427C61.4772 37.912 61.0393 35.7464 59.8402 34.5399C59.2662 33.9623 58.7758 33.3022 58.2394 32.6865C55.2498 29.2548 53.8318 25.4929 56.1074 20.8451C49.4674 20.8486 43.419 20.0324 39.6809 14.009C37.1537 9.93676 36.589 5.50446 37.4623 0C41.6998 5.00612 47.1484 6.3813 52.7618 7.77238C53.759 5.86026 54.7957 3.90356 56.4416 2.38445C57.0524 1.8206 57.6625 1.15941 58.4867 2.08467C60.3984 4.23062 62.9922 5.45205 65.2713 7.09957C66.4873 7.97858 67.5859 8.96287 68.3134 10.298C68.7664 11.1294 68.9036 12.0249 68.3642 12.8369C67.8709 13.5797 67.0652 13.3348 66.3218 13.2741C65.3618 13.1958 64.3943 13.1757 63.4306 13.1847C62.2548 13.1957 61.1473 13.4927 60.7267 14.7278C60.2999 15.9807 61.0896 16.9004 61.9633 17.6044C64.3299 19.5114 67.0783 20.5855 70.0837 20.9633C71.6327 21.158 73.2103 21.242 74.7385 20.8725C75.7376 20.631 76.8904 20.2784 77.0434 19.0669C77.1751 18.0234 76.3749 17.3162 75.551 16.7561C74.9374 16.3389 74.3002 15.9563 73.6872 15.5382C72.794 14.9289 72.5618 14.1932 73.4301 13.1781Z" fill="#B7084B"/>
</svg>
